# xmcd
#
# Track frame offsets: 
#        150
#        19370
#        34915
#        48400
#        62648
#        82283
#        95833
#        111785
#        133175
#        150690
#        166815
#        186573
#        202723
#
# Disc length: 2937 seconds
#
# Revision: 7
# Processed by: cddbd v1.5.2PL0 Copyright (c) Steve Scherf et al.
# Submitted via: ExactAudioCopyFreeDBPlugin 1.0
#
DISCID=b80b770d
DTITLE=Keith Whitley - A Tribute Album
DYEAR=1994
DGENRE=Country
TTITLE0=Alan Jackson - Don't Close Your Eyes
TTITLE1=Diamond Rio - Ten Feet Away
TTITLE2=I'm Gonna Hurt Her On The Radio
TTITLE3=Tracy Lawrence - I'm Over You
TTITLE4=Alison Krauss and Union Station - When You Say Nothing At All
TTITLE5=Charlotte's In North Carolina
TTITLE6=Keith Whitley and Lorrie Morgan - I Just Want You
TTITLE7=Daron Norwood - Little Boy Lost
TTITLE8=Ricky Skaggs, Shenandoah - All I Ever Loved Was You
TTITLE9=Joe Diffie - I'm No Stranger To The Rain
TTITLE10=Mark Chesnutt - I Never Go Aroung Mirrors
TTITLE11=The Comeback Kid
TTITLE12=Event/Various - A Voice Still Rings True
EXTD=
EXTT0=
EXTT1=
EXTT2=
EXTT3=
EXTT4=
EXTT5=
EXTT6=
EXTT7=
EXTT8=
EXTT9=
EXTT10=
EXTT11=
EXTT12=
PLAYORDER=
